<svg xmlns="http://www.w3.org/2000/svg" width="394" height="458" style="shape-rendering:geometricPrecision;text-rendering:geometricPrecision;image-rendering:optimizeQuality;fill-rule:evenodd;clip-rule:evenodd"><path style="opacity:.986" fill="#2f363e" d="M149.5 215.5c-1.888 3.399-4.388 6.399-7.5 9a128.507 128.507 0 0 0-.5 16 11.596 11.596 0 0 0-7-.5 147.168 147.168 0 0 0-9.5 17.5c-1.532 2.062-3.532 3.396-6 4a697.924 697.924 0 0 1-32-15l-1.5-4.5a395.56 395.56 0 0 1 8-21 216.036 216.036 0 0 1-17-18 127.276 127.276 0 0 0-21.5 5.5c-2.316-.434-4.316-1.434-6-3A889.8 889.8 0 0 1 37.5 174c.49-1.982 1.49-3.649 3-5a524.534 524.534 0 0 1 19.5-9.5 96.897 96.897 0 0 1 1.5-24c-5.472-4.242-11.472-7.742-18-10.5-2.084-1.501-3.417-3.501-4-6a233.444 233.444 0 0 1 15-32 16.228 16.228 0 0 1 3.5-1.5 195.927 195.927 0 0 1 21.5 8 89.673 89.673 0 0 1 18.5-17 711.123 711.123 0 0 0-5.5-22c-.094-2.412.906-4.245 3-5.5A419.248 419.248 0 0 1 126 37.5a14.757 14.757 0 0 1 5.5 3 246.85 246.85 0 0 1 9 19c8.134.027 16.301.693 24.5 2a149.741 149.741 0 0 0 12-20 9.208 9.208 0 0 1 4.5-2 450.303 450.303 0 0 1 31 14c1.936 2.708 2.436 5.708 1.5 9a523.424 523.424 0 0 1-6.5 17 266.744 266.744 0 0 0 13.5 14c.749 1.135.583 2.135-.5 3l-20 11c-23.637-23.293-50.637-28.126-81-14.5-31.617 20.516-41.117 48.683-28.5 84.5 11.972 24.08 31.472 36.746 58.5 38z"/><path style="opacity:.993" fill="#44b29c" d="M141.5 240.5c-.166-5.344.001-10.677.5-16 3.112-2.601 5.612-5.601 7.5-9a348.625 348.625 0 0 0 16-15.5c-29.887 4.806-52.054-6.027-66.5-32.5-4.55-11.368-5.55-23.035-3-35 .536-3.951 2.036-7.451 4.5-10.5a12.494 12.494 0 0 1 7 0l30 30c9.664 4.612 15.998 1.779 19-8.5a56.64 56.64 0 0 0-2.5-7l-29-29c-3.813-4.867-2.98-8.7 2.5-11.5 32.736-8.432 56.569 2.4 71.5 32.5 3.966 11.69 4.466 23.523 1.5 35.5 2.511 4.191 5.844 7.191 10 9 10.717-14.688 22.717-16.021 36-4l9 9c5.375-.038 10.375 1.296 15 4l11.5 11.5c1.94 4.443 2.94 9.11 3 14a169.323 169.323 0 0 1 15 16c1.94 4.443 2.94 9.11 3 14a102.083 102.083 0 0 1 16 18c2.42 8.398.587 15.731-5.5 22a7.248 7.248 0 0 0 2 2.5c24.911-5.363 45.744 1.47 62.5 20.5 11.333 16.327 13.999 33.994 8 53-2.196 5.04-5.696 6.207-10.5 3.5a361.24 361.24 0 0 0-33-31c-12.185-.799-16.685 4.701-13.5 16.5l30 30c3.06 7.305.56 11.472-7.5 12.5-26.782 5.408-47.948-3.092-63.5-25.5-7.52-13.778-9.353-28.278-5.5-43.5.005-2.163-.995-3.663-3-4.5a1803.01 1803.01 0 0 0-36 35.5 308.045 308.045 0 0 1-34 2 247.588 247.588 0 0 0-13 13.5c2.286 2.113 3.952 4.613 5 7.5a406.885 406.885 0 0 1-33 35c-3.515.519-6.848.186-10-1l-52 52c-1 .667-2 .667-3 0l-6.5-6.5c-.667-1-.667-2 0-3a3931.8 3931.8 0 0 0 52.5-53 4304.564 4304.564 0 0 1-54.5-56L35.5 397c-4.196-.988-7.53-3.488-10-7.5a5213.805 5213.805 0 0 0 60-61.5c-2.79-2.21-3.623-5.044-2.5-8.5l31.5-31.5c5.054-1.579 9.221-.079 12.5 4.5a148.31 148.31 0 0 0 14-15c.5-12.329.667-24.662.5-37zm0-134c19.806-2.345 34.64 5.322 44.5 23a42.167 42.167 0 0 1 4 14 217.47 217.47 0 0 1-2 26 119.16 119.16 0 0 0 12.5 13.5l-2 2c-8.153-.637-15.653 1.197-22.5 5.5-1.943-2.965-4.61-4.631-8-5-20.578 6.957-37.911 2.291-52-14-6.885-9.207-9.552-19.54-8-31l20.5 20.5c10.49 8.068 21.157 8.401 32 1 9.231-10.261 10.398-21.428 3.5-33.5a696.251 696.251 0 0 0-22.5-22zm87 67a10.098 10.098 0 0 1 6 1.5 148.386 148.386 0 0 1 10 10.5c-6.333 7-13 13.667-20 20a286.258 286.258 0 0 0-15-13.5 492.451 492.451 0 0 1 19-18.5zm29 18c7.315.97 12.315 4.97 15 12a298.805 298.805 0 0 1-24.5 26L233.5 215a792.03 792.03 0 0 1 24-23.5zm-103 49c.758-2.481.758-5.148 0-8a4.934 4.934 0 0 1 .5-3 349.925 349.925 0 0 1 32.5-30.5c5.518-1.287 10.518-.287 15 3a3289.496 3289.496 0 0 1 48 48.5c-6.976 7.764-14.976 9.264-24 4.5l-27-27c-7.182-3.462-10.682-1.295-10.5 6.5a75.853 75.853 0 0 1 11 17c6.246 17.198 3.246 32.531-9 46 1.031 4.393 3.697 7.726 8 10 8.673-7.668 14.007-17.335 16-29l1-16c5.615 4.764 12.115 7.597 19.5 8.5 4.688 5.876 10.688 9.376 18 10.5-.241 3.294.592 6.294 2.5 9 4.485 4.141 8.485 8.475 12 13L236.5 335l-32 1a206.277 206.277 0 0 0-17.5 17.5 3639.317 3639.317 0 0 1-50.5-51 124.236 124.236 0 0 1 15.5-17 22.981 22.981 0 0 0 2-5c.5-13.329.667-26.663.5-40zm122-22c4.572 3.063 8.739 6.73 12.5 11 .667 2 .667 4 0 6L256.5 268c-2.228.82-4.228.487-6-1 6.884-4.05 12.217-9.55 16-16.5-1.848-4.358-4.682-8.025-8.5-11-.667-.667-.667-1.333 0-2a495.007 495.007 0 0 0 18.5-19zm18 30c4.572 3.063 8.739 6.73 12.5 11 .667 1.667.667 3.333 0 5-8.5 9.833-17.667 19-27.5 27.5-1.333.667-2.667.667-4 0a45.255 45.255 0 0 1-8.5-7.5c-1.373-2.195-1.706-4.529-1-7a1166.425 1166.425 0 0 0 28.5-29zm9 38c3.063 1.551 5.729 3.718 8 6.5a9.62 9.62 0 0 0 4.5 1.5c25.305-7.572 44.305.094 57 23 2.949 7.077 3.949 14.41 3 22L356.5 320c-13.274-10.537-25.774-9.703-37.5 2.5-5.991 9.313-5.991 18.646 0 28a731.112 731.112 0 0 1 22.5 23c-28.712.625-44.712-13.375-48-42a363.053 363.053 0 0 0 2.5-21 45.255 45.255 0 0 0-7.5-8.5 326.819 326.819 0 0 0 15-15.5zm-186 16a6473.583 6473.583 0 0 1 68 67.5L165 390.5 97.5 323a577.46 577.46 0 0 0 20-20.5z"/><path style="opacity:.987" fill="#334c4f" d="M154.5 232.5c.758 2.852.758 5.519 0 8-1.333-2.667-1.333-5.333 0-8z"/></svg>